<svg width="648" height="202" viewBox="0 0 648 202" fill="none" xmlns="http://www.w3.org/2000/svg"><path d="M100.995 33.175v11.23H56.191V0zM369.23 101H353v44.804h49.405zm-122.238-.442H101.084V201H56.25V100.558H0v-19.17c0-6.733 2.692-13.19 7.484-17.952A25.63 25.63 0 0 1 25.55 56h176.473z" fill="#fff"/><path d="m246.775 156.365-44.928 44.626h-64.869c-3.23 0-6.43-.633-9.414-1.864a24.6 24.6 0 0 1-7.982-5.313 24.5 24.5 0 0 1-5.332-7.951 24.4 24.4 0 0 1-1.872-9.38V111.73h44.795v44.626zM25.528 201h19.276v-89.252H.009v63.82c0 6.743 2.689 13.21 7.474 17.98A25.58 25.58 0 0 0 25.528 201m313.16.252h19.276V112h-44.795v63.819a25.4 25.4 0 0 0 7.474 17.98 25.58 25.58 0 0 0 18.045 7.453" fill="#fff"/><path d="M246.992 100.558H101.084V201H56.25V100.558H0v-19.17c0-6.733 2.692-13.19 7.484-17.952A25.63 25.63 0 0 1 25.55 56h176.473zM456.991 44 412 96.485v75.778c0 3.774.638 7.511 1.88 10.998s3.061 6.655 5.356 9.324 5.018 4.785 8.016 6.229 6.211 2.186 9.456 2.186H457l-.009-50.696z" fill="#fff"/><path d="M25.528 201h19.276v-89.252H.009v63.82c0 6.743 2.689 13.21 7.474 17.98A25.58 25.58 0 0 0 25.528 201" fill="#E2232B"/><path d="M338.636 201H358V56h-45v103.682c0 10.956.693 23.57 5.5 31.318s13.336 9.996 20.136 10m182.728 1H502l45-158v112.978c0 11.938-.693 25.683-5.5 34.125-4.808 8.444-13.336 10.893-20.136 10.897" fill="#fff"/><path d="M521.364 202H502V100l45-56v112.978c0 11.938-.693 25.683-5.5 34.125-4.808 8.444-13.336 10.893-20.136 10.897" fill="#fff"/><path d="M546.991 44 502 88.589v64.378c-.006 45.392 36.935-2.373 45-20.042zM435 181.636V201h56v-45h-40.043c-4.231 0-8.289 2.701-11.281 7.508s-4.674 11.328-4.676 18.128M558 89l45-45v45z" fill="#fff"/><path d="M605 146H502v-45h103zm-47 11v43.991h45V157z" fill="#fff"/><path d="M598 201h25.292L648 148.515V72.737c0-3.774-.638-7.511-1.88-10.998s-3.061-6.655-5.356-9.324-5.018-4.785-8.016-6.229-6.211-2.187-9.456-2.186H603l-3 45v68z" fill="#fff"/><path d="M600 84h48v88.263a31 31 0 0 1-2.005 10.998c-1.324 3.487-3.266 6.655-5.713 9.324s-5.353 4.785-8.551 6.229A24.5 24.5 0 0 1 621.645 201H600l.01-50.696z" fill="#fff"/></svg>