<svg width="648" height="202" viewBox="0 0 648 202" fill="none" xmlns="http://www.w3.org/2000/svg">
<path d="M100.995 33.1749V44.4051H56.1913V0L100.995 33.1749Z" fill="white"/>
<path d="M369.23 101H353V145.804H402.405L369.23 101Z" fill="white"/>
<path d="M246.992 100.558H101.084V201H56.2503V100.558H0V81.3882C0 74.655 2.69193 68.1973 7.4836 63.4359C12.2753 58.6746 18.7742 56 25.5506 56H202.024L246.992 100.558Z" fill="white"/>
<path d="M246.775 156.365L201.847 200.991H169.413H136.978C133.748 200.991 130.548 200.358 127.564 199.127C124.578 197.895 121.866 196.09 119.582 193.814C117.297 191.538 115.486 188.836 114.25 185.863C113.013 182.889 112.378 179.702 112.378 176.483V111.73H157.173V156.356L246.775 156.365Z" fill="white"/>
<path d="M25.5282 201H44.8036V111.748H0.00920105V175.568C0.00920059 182.311 2.69751 188.778 7.48297 193.548C12.2685 198.317 18.7593 200.998 25.5282 201Z" fill="white"/>
<path d="M338.688 201.252H357.964V112H313.169V175.819C313.169 182.563 315.858 189.03 320.643 193.799C325.429 198.569 331.919 201.249 338.688 201.252Z" fill="white"/>
<path d="M246.992 100.558H101.084V201H56.2503V100.558H0V81.3882C0 74.655 2.69193 68.1973 7.4836 63.4359C12.2753 58.6746 18.7742 56 25.5506 56H202.024L246.992 100.558Z" fill="white"/>
<path d="M456.991 44L412 96.4846V134.374V172.263C412 176.037 412.638 179.774 413.88 183.261C415.121 186.748 416.941 189.916 419.236 192.585C421.53 195.254 424.254 197.37 427.252 198.814C430.25 200.258 433.463 201 436.708 201L457 201L456.991 150.304V44Z" fill="white"/>
<path d="M25.5282 201H44.8036V111.748H0.00920105V175.568C0.00920059 182.311 2.69751 188.778 7.48297 193.548C12.2685 198.317 18.7593 200.998 25.5282 201Z" fill="#E2232B"/>
<path d="M338.636 201H358V56H313V159.682C313 170.638 313.693 183.252 318.5 191C323.308 198.749 331.836 200.996 338.636 201Z" fill="white"/>
<path d="M521.364 202H502L547 44V156.978C547 168.916 546.307 182.661 541.5 191.103C536.692 199.547 528.164 201.996 521.364 202Z" fill="white"/>
<path d="M521.364 202H502V100L547 44V156.978C547 168.916 546.307 182.661 541.5 191.103C536.692 199.547 528.164 201.996 521.364 202Z" fill="white"/>
<path d="M546.991 44L502 88.5889V152.967C501.994 198.359 538.935 150.594 547 132.925L546.991 44Z" fill="white"/>
<path d="M435 181.636V201H491V156H450.957C446.726 156 442.668 158.701 439.676 163.508C436.683 168.316 435.002 174.836 435 181.636Z" fill="white"/>
<path d="M558 89L603 44C603 85.3438 603 74.9489 603 89H558Z" fill="white"/>
<path d="M605 146H502V101C527.369 101 580.493 101 605 101C605 113.5 605 132.86 605 146Z" fill="white"/>
<path d="M558 157V200.991H603C603 150.491 603 190.135 603 157H558Z" fill="white"/>
<path d="M598 201H623.292L648 148.515V110.626V72.7372C648 68.9632 647.362 65.226 646.12 61.7392C644.879 58.252 643.059 55.0839 640.764 52.4152C638.47 49.7465 635.746 47.6301 632.748 46.186C629.75 44.7419 626.537 43.9995 623.292 44L603 44L600 89V146V157L598 201Z" fill="white"/>
<path d="M600 84H648V134.374V172.263C648 176.037 647.319 179.774 645.995 183.261C644.671 186.748 642.729 189.916 640.282 192.585C637.834 195.254 634.929 197.37 631.731 198.814C628.534 200.258 625.106 201 621.645 201L600 201L600.01 150.304L600 84Z" fill="white"/>
</svg> 